<?xml version="1.0" encoding="UTF-8" standalone="no"?>
<!-- Created with Inkscape (http://www.inkscape.org/) -->

<svg
   width="7.9375mm"
   height="95.25mm"
   viewBox="0 0 7.9375005 95.249995"
   version="1.1"
   id="svg1"
   inkscape:version="1.3.2 (091e20e, 2023-11-25, custom)"
   sodipodi:docname="texture.svg"
   inkscape:export-filename="texture.png"
   inkscape:export-xdpi="96"
   inkscape:export-ydpi="96"
   xmlns:inkscape="http://www.inkscape.org/namespaces/inkscape"
   xmlns:sodipodi="http://sodipodi.sourceforge.net/DTD/sodipodi-0.dtd"
   xmlns="http://www.w3.org/2000/svg"
   xmlns:svg="http://www.w3.org/2000/svg">
  <sodipodi:namedview
     id="namedview1"
     pagecolor="#ffffff"
     bordercolor="#000000"
     borderopacity="0.25"
     inkscape:showpageshadow="2"
     inkscape:pageopacity="0.0"
     inkscape:pagecheckerboard="0"
     inkscape:deskcolor="#d1d1d1"
     inkscape:document-units="mm"
     showgrid="true"
     inkscape:zoom="16.46244"
     inkscape:cx="17.008414"
     inkscape:cy="288.44448"
     inkscape:window-width="1920"
     inkscape:window-height="1017"
     inkscape:window-x="1912"
     inkscape:window-y="-8"
     inkscape:window-maximized="1"
     inkscape:current-layer="layer2">
    <inkscape:grid
       id="grid1"
       units="mm"
       originx="0"
       originy="0"
       spacingx="0.99999998"
       spacingy="1"
       empcolor="#0099e5"
       empopacity="0.30196078"
       color="#0099e5"
       opacity="0.14901961"
       empspacing="5"
       dotted="false"
       gridanglex="30"
       gridanglez="30"
       visible="true" />
  </sodipodi:namedview>
  <defs
     id="defs1" />
  <g
     inkscape:label="marble"
     inkscape:groupmode="layer"
     id="layer1">
    <circle
       style="fill:#999999;fill-opacity:1;stroke-width:0.0710827"
       id="path1"
       cx="3.96875"
       cy="3.96875"
       r="3.96875" />
    <circle
       style="fill:#999999;stroke-width:0.0710827"
       id="path1-6"
       cx="3.96875"
       cy="11.90625"
       r="3.96875" />
    <circle
       style="fill:#999999;stroke-width:0.0710827"
       id="path1-8"
       cx="3.96875"
       cy="19.84375"
       r="3.96875" />
    <circle
       style="fill:#999999;stroke-width:0.0710827"
       id="path1-8-6"
       cx="3.96875"
       cy="67.46875"
       r="3.96875" />
    <circle
       style="fill:#999999;stroke-width:0.0710827"
       id="path1-5"
       cx="3.96875"
       cy="27.78125"
       r="3.96875" />
    <circle
       style="fill:#999999;stroke-width:0.0710827"
       id="path1-5-6"
       cx="3.96875"
       cy="75.40625"
       r="3.96875" />
    <circle
       style="fill:#999999;stroke-width:0.0710827"
       id="path1-80"
       cx="3.96875"
       cy="35.71875"
       r="3.96875" />
    <circle
       style="fill:#999999;stroke-width:0.0710827"
       id="path1-80-7"
       cx="3.96875"
       cy="83.34375"
       r="3.96875" />
    <path
       style="fill:#999999;fill-opacity:1;stroke-width:0.485955"
       d="m 20.113212,28.095602 c 0.584808,-1.877998 -1.675858,-3.205247 -5.402374,-3.171761 -2.943177,0.02645 -4.9917441,1.0704 -4.9917441,2.543802 0,1.404727 -0.9139758,1.183456 -3.6446602,-0.882363 C 2.6675806,24.007926 0.44191209,19.613903 0.42188084,15.425735 0.39307544,9.4030567 3.3512612,4.4436347 8.4647194,1.9418528 15.648441,-1.5728151 24.079434,1.0736909 27.942395,8.0559353 c 1.298835,2.3476247 1.457864,3.0856507 1.457864,6.7656827 0,3.311064 -0.218533,4.574123 -1.101427,6.365937 -1.332428,2.704131 -4.067984,5.538819 -6.595174,6.834175 -1.759541,0.901883 -1.849591,0.906065 -1.590446,0.07387 z"
       id="path7"
       transform="scale(0.26458333)" />
    <circle
       style="fill:#999999;stroke-width:0.0710827"
       id="path1-1"
       cx="3.96875"
       cy="43.65625"
       r="3.96875" />
    <circle
       style="fill:#999999;fill-opacity:1;stroke-width:0.0710827"
       id="path1-9"
       cx="3.96875"
       cy="91.28125"
       r="3.96875" />
    <circle
       style="fill:#999999;stroke-width:0.0710827"
       id="path1-80-4"
       cx="3.96875"
       cy="59.53125"
       r="3.96875" />
    <circle
       style="fill:#999999;stroke-width:0.0710827"
       id="path1-1-0"
       cx="3.96875"
       cy="51.59375"
       r="3.96875"
       inkscape:label="path1-1-0" />
  </g>
  <circle
     style="fill:#469f46;stroke-width:0.124685;fill-opacity:1"
     id="path2-7-4"
     cx="4.0553346"
     cy="19.139187"
     r="1.3229166" />
  <circle
     style="fill:#469f46;fill-opacity:1;stroke-width:0.124685"
     id="path2-7-4-4"
     cx="4.0142083"
     cy="28.422579"
     r="1.3229166" />
  <g
     inkscape:groupmode="layer"
     id="layer3"
     inkscape:label="bottom">
    <ellipse
       style="fill:#00a500;fill-opacity:0.541502;stroke-width:0.0881656"
       id="path2-8"
       cx="3.96875"
       cy="0.66145831"
       rx="1.3229166"
       ry="0.66145831" />
    <ellipse
       style="fill:#00a500;fill-opacity:0.541502;stroke-width:0.0881656"
       id="path2-8-9"
       cx="4.006042"
       cy="46.843502"
       rx="1.3229166"
       ry="0.66145831" />
    <path
       style="fill:#6a6aff;fill-opacity:1;stroke-width:0.139016"
       d="M 3.4450711,86.457547 C 3.1218674,86.317024 2.6458333,85.793033 2.6458333,85.577793 c 0,-0.109405 0.1471324,-0.359167 0.3269609,-0.555024 0.2615111,-0.284818 0.4627089,-0.356102 1.0051021,-0.356102 0.5423935,0 0.7435911,0.07129 1.0051022,0.356102 0.4096525,0.446163 0.4110956,0.667861 0.00703,1.081283 -0.320348,0.327772 -1.1614806,0.520228 -1.5449658,0.353495 z"
       id="path6" />
    <path
       style="fill:#6a6aff;fill-opacity:1;stroke-width:0.138499"
       d="m 3.0301683,76.87654 c -0.5271774,-0.522314 -0.5102651,-1.307815 0.039894,-1.852897 0.8152367,-0.807711 2.0362676,-0.364125 2.1934379,0.796854 0.069487,0.513281 0.030229,0.626741 -0.345757,0.999258 -0.5680029,0.562762 -1.3530492,0.586378 -1.887575,0.05678 z"
       id="path5" />
    <path
       style="fill:#6a6aff;fill-opacity:1;stroke-width:0.137047"
       d="M 3.5329813,67.917889 C 3.2083991,67.812003 2.9836937,67.612073 2.8178302,67.281591 2.5146175,66.677446 2.607458,66.223917 3.1349132,65.732641 c 0.5795998,-0.539842 1.121436,-0.506339 1.7290191,0.106913 0.4224645,0.426409 0.4713586,0.545882 0.4014227,0.98087 -0.146356,0.910307 -0.88048,1.375376 -1.7323737,1.097461 z"
       id="path4" />
    <ellipse
       style="fill:#6a6aff;fill-opacity:1;stroke-width:0.0881656"
       id="path2-3-2"
       cx="3.96875"
       cy="48.286457"
       rx="1.3229166"
       ry="0.66145831" />
    <path
       style="fill:#6a6aff;fill-opacity:1;stroke-width:0.0230651"
       d="M 3.6937432,95.230644 C 3.3277129,95.190187 3.0036633,95.07194 2.8302252,94.915541 2.6892075,94.788379 2.6458333,94.710592 2.6458333,94.584858 c 0,-0.117048 0.039482,-0.194976 0.1535608,-0.303094 0.4908806,-0.465231 1.8026687,-0.474764 2.3226304,-0.01689 0.4402263,0.387669 -0.016123,0.872085 -0.910084,0.966052 -0.2424843,0.02549 -0.2851608,0.02547 -0.5181973,-2.68e-4 z"
       id="path8" />
    <path
       style="fill:#6a6aff;fill-opacity:1;stroke-width:0.139404"
       d="M 3.242435,58.554892 C 2.5443174,58.145557 2.467922,57.782988 2.9658142,57.242069 c 0.262567,-0.28526 0.4645771,-0.356652 1.0091606,-0.356652 0.5445832,0 0.7465933,0.07139 1.0091604,0.356652 0.4039667,0.438877 0.4067817,0.545107 0.027147,1.024602 C 4.6263747,58.752825 3.80755,58.886246 3.242435,58.554892 Z"
       id="path3" />
    <ellipse
       style="fill:#469f46;stroke-width:0.104319;fill-opacity:1"
       id="path2-5-1"
       cx="3.96875"
       cy="9.921875"
       rx="1.3229166"
       ry="0.92604166" />
    <ellipse
       style="fill:#469f46;fill-opacity:1;stroke-width:0.104319"
       id="path2-5-1-7"
       cx="4.0142083"
       cy="37.287777"
       rx="1.3229166"
       ry="0.92604166" />
  </g>
  <g
     inkscape:groupmode="layer"
     id="layer2"
     inkscape:label="top">
    <ellipse
       style="fill:#0000ff;stroke-width:0.0881656"
       id="path2-3"
       cx="3.96875"
       cy="40.418449"
       rx="1.3229166"
       ry="0.66145831" />
    <circle
       style="fill:#0000ff;stroke-width:0.124685"
       id="path2-4"
       cx="3.96875"
       cy="27.252083"
       r="1.3229166" />
    <ellipse
       style="fill:#008700;fill-opacity:0.924901;stroke-width:0.0881656"
       id="path2-8-6"
       cx="3.96875"
       cy="54.901043"
       rx="1.3229166"
       ry="0.66145831" />
    <ellipse
       style="fill:#008700;fill-opacity:0.924901;stroke-width:0.104319"
       id="path2-8-6-0"
       cx="3.9769166"
       cy="60.809246"
       rx="1.3229166"
       ry="0.92604166" />
    <circle
       style="fill:#006700;fill-opacity:0.92490101;stroke-width:0.124685"
       id="path2-8-6-0-1"
       cx="3.96875"
       cy="68.262497"
       r="1.3229166" />
    <circle
       style="fill:#008700;fill-opacity:0.924901;stroke-width:0.124685"
       id="path2-8-6-0-1-8"
       cx="3.96875"
       cy="74.612503"
       r="1.3229166" />
    <ellipse
       style="fill:#008700;fill-opacity:0.924901;stroke-width:0.104319"
       id="path2-8-6-0-1-3"
       cx="3.96875"
       cy="81.888542"
       rx="1.3229166"
       ry="0.92604166" />
    <ellipse
       style="fill:#008700;fill-opacity:0.924901;stroke-width:0.0881656"
       id="path2-8-6-0-1-80"
       cx="3.96875"
       cy="87.973961"
       rx="1.3229166"
       ry="0.66145831" />
    <ellipse
       style="fill:#0000ff;stroke-width:0.0881656"
       id="path2"
       cx="3.96875"
       cy="7.2760415"
       rx="1.3229166"
       ry="0.66145831" />
    <ellipse
       style="fill:#0000ff;stroke-width:0.104319"
       id="path2-5"
       cx="3.96875"
       cy="13.943542"
       rx="1.3229166"
       ry="0.92604166" />
    <ellipse
       style="fill:#0000ff;stroke-width:0.104319"
       id="path2-9"
       cx="3.96875"
       cy="33.998959"
       rx="1.3229166"
       ry="0.92604166" />
    <circle
       style="fill:#0000ff;stroke-width:0.124685"
       id="path2-7"
       cx="3.96875"
       cy="20.714426"
       r="1.3229166" />
    <path
       style="fill:#006700;fill-opacity:0.924901;stroke-width:0.242977"
       d="m 10.490568,283.79388 c -0.448218,-0.98373 -0.347912,-2.93062 0.207035,-4.0184 0.637509,-1.24962 2.167741,-2.34876 3.56081,-2.55766 3.094979,-0.46412 6.0573,2.44955 5.549041,5.45791 -0.270877,1.60331 -0.479557,1.69996 -1.489618,0.6899 -1.904828,-1.90483 -4.590194,-1.8209 -6.673126,0.20857 l -0.868623,0.84633 z"
       id="path9"
       transform="scale(0.26458333)" />
    <path
       style="fill:#006700;fill-opacity:0.924901;stroke-width:0.242977"
       d="m 12.756311,312.46835 c -1.390374,-0.49163 -2.551262,-1.82707 -2.551262,-2.93488 0,-3.40085 6.253553,-4.61788 8.939039,-1.73966 2.562128,2.74601 -2.130337,6.17993 -6.387777,4.67454 z"
       id="path10"
       transform="scale(0.26458333)" />
    <path
       style="fill:#006700;fill-opacity:0.924901;stroke-width:0.242977"
       d="m 13.200085,334.70462 c -2.051724,-0.43423 -3.079175,-1.25214 -2.951849,-2.34981 0.216884,-1.86975 4.893742,-2.88592 7.758613,-1.68576 0.453143,0.18984 1.094505,0.63394 1.42525,0.98691 0.561718,0.59945 0.577682,0.68493 0.242201,1.29684 -0.758958,1.38434 -4.029383,2.26926 -6.474215,1.75182 z"
       id="path11"
       transform="scale(0.26458333)" />
    <path
       style="fill:#006700;fill-opacity:0.924901;stroke-width:0.242977"
       d="m 12.756311,232.7844 c -1.316479,-0.48259 -2.551262,-1.85036 -2.551262,-2.82603 0,-1.93249 2.086092,-3.38591 4.846509,-3.37666 4.67523,0.0157 6.556647,3.98427 2.807277,5.92157 -1.232872,0.63703 -3.752899,0.77587 -5.102524,0.28112 z"
       id="path12"
       transform="scale(0.26458333)" />
    <path
       style="fill:#006700;fill-opacity:0.924901;stroke-width:0.242977"
       d="m 12.308063,209.47065 c -1.202229,-0.44684 -2.103014,-1.29868 -2.103014,-1.98875 0,-0.71326 1.213926,-1.71716 2.492817,-2.06153 1.429612,-0.38495 4.471054,-0.18648 5.604376,0.36572 3.071438,1.49654 1.340846,3.77941 -2.994669,3.95035 -1.376506,0.0543 -2.376874,-0.0344 -2.99951,-0.26579 z"
       id="path13"
       transform="scale(0.26458333)" />
    <path
       style="fill:#006700;fill-opacity:0.924901;stroke-width:0.242977"
       d="m 12.999288,286.38901 c -0.53455,-0.25413 -1.238518,-0.75146 -1.564374,-1.10518 l -0.592465,-0.64313 0.941797,-0.96449 c 1.042587,-1.0677 2.119776,-1.52126 3.565561,-1.50131 0.998678,0.0138 2.654089,0.83047 3.437083,1.69567 0.379231,0.41905 0.396326,0.56075 0.121193,1.00457 -1.048857,1.69192 -3.963514,2.43867 -5.908795,1.51387 z"
       id="path14"
       transform="scale(0.26458333)" />
    <path
       style="fill:#006700;fill-opacity:0.924901;stroke-width:0.242977"
       d="m 10.453362,283.20992 c -0.144178,-0.53544 -0.20436,-1.25097 -0.133739,-1.59007 0.07062,-0.3391 0.183041,-0.88147 0.249821,-1.20526 0.176248,-0.85458 1.249455,-2.02978 2.380578,-2.60684 1.449393,-0.73942 3.492429,-0.55253 4.707128,0.43061 1.502974,1.21646 1.871275,1.88409 1.962347,3.55724 0.105331,1.9351 -0.175173,2.43785 -0.958188,1.71736 -2.243682,-2.06452 -4.45092,-2.07576 -7.04689,-0.0359 l -0.898915,0.70636 z"
       id="path15"
       transform="scale(0.26458333)" />
    <path
       style="fill:#006700;fill-opacity:0.924901;stroke-width:0.242977"
       d=""
       id="path16"
       transform="scale(0.26458333)" />
    <path
       style="fill:#006700;fill-opacity:0.924901;stroke-width:0.242977"
       d=""
       id="path17"
       transform="scale(0.26458333)" />
    <path
       style="fill:#006700;fill-opacity:0.924901;stroke-width:0.0607443"
       d="m 10.908911,284.3775 c 0.232355,-0.35112 1.310078,-1.30141 1.859083,-1.63927 0.261282,-0.1608 0.741397,-0.38247 1.066922,-0.49262 0.531152,-0.17972 0.663521,-0.20048 1.290424,-0.20233 0.807595,-0.002 1.248162,0.0951 1.893434,0.41894 0.39429,0.19788 0.865665,0.51068 0.826528,0.54848 -0.0093,0.009 -0.310803,-0.12863 -0.670093,-0.30571 -0.854912,-0.42137 -1.367873,-0.55128 -2.110613,-0.53453 -1.432417,0.0323 -2.414319,0.54383 -3.735337,1.94599 -0.510563,0.54192 -0.672966,0.64278 -0.420348,0.26105 z"
       id="path18"
       transform="scale(0.26458333)" />
  </g>
</svg>
