<?xml version="1.0" encoding="UTF-8" standalone="no"?>
<!-- Created with Inkscape (http://www.inkscape.org/) -->

<svg
   width="60"
   height="720"
   viewBox="0 0 7.8947368 94.736842"
   version="1.1"
   id="svg1"
   inkscape:version="1.3.2 (091e20e, 2023-11-25, custom)"
   sodipodi:docname="texture.svg"
   inkscape:export-filename="texture.png"
   inkscape:export-xdpi="96"
   inkscape:export-ydpi="96"
   xmlns:inkscape="http://www.inkscape.org/namespaces/inkscape"
   xmlns:sodipodi="http://sodipodi.sourceforge.net/DTD/sodipodi-0.dtd"
   xmlns="http://www.w3.org/2000/svg"
   xmlns:svg="http://www.w3.org/2000/svg">
  <sodipodi:namedview
     id="namedview1"
     pagecolor="#ffffff"
     bordercolor="#000000"
     borderopacity="0.25"
     inkscape:showpageshadow="2"
     inkscape:pageopacity="0.0"
     inkscape:pagecheckerboard="0"
     inkscape:deskcolor="#d1d1d1"
     inkscape:document-units="px"
     showgrid="true"
     inkscape:zoom="1.4142136"
     inkscape:cx="-241.12341"
     inkscape:cy="525.73389"
     inkscape:window-width="1920"
     inkscape:window-height="1017"
     inkscape:window-x="1912"
     inkscape:window-y="-8"
     inkscape:window-maximized="1"
     inkscape:current-layer="layer1">
    <inkscape:grid
       id="grid1"
       units="mm"
       originx="0"
       originy="0"
       spacingx="0.99999998"
       spacingy="1"
       empcolor="#0099e5"
       empopacity="0.30196078"
       color="#0099e5"
       opacity="0.14901961"
       empspacing="5"
       dotted="false"
       gridanglex="30"
       gridanglez="30"
       visible="true" />
  </sodipodi:namedview>
  <defs
     id="defs1" />
  <g
     inkscape:groupmode="layer"
     id="layer3"
     inkscape:label="bottom">
    <g
       id="g4"
       inkscape:label="blue"
       style="fill:#0000ff;fill-opacity:1">
      <path
         style="fill:#0001ff;fill-opacity:1;stroke-width:0.0673493"
         d="M 3.1880014,94.655171 C 2.8699116,94.525416 2.6315789,94.278055 2.6315789,94.07767 c 0,-0.207119 0.3211846,-0.498636 0.6595579,-0.598635 0.3782515,-0.111784 1.1829663,-0.05415 1.4828244,0.106195 0.8126513,0.434572 0.3547655,1.097481 -0.7923395,1.14712 -0.3642005,0.01577 -0.6288812,-0.01 -0.7936203,-0.07718 z"
         id="path13-8"
         inkscape:label="12" />
      <path
         style="fill:#0000ff;fill-opacity:1;stroke-width:0.027291"
         d="M 3.6937433,86.227064 C 3.327713,86.170424 3.0036634,86.004879 2.8302253,85.785921 2.6892076,85.607894 2.6458334,85.498992 2.6458334,85.322965 c 0,-0.163867 0.039482,-0.272966 0.1535608,-0.424331 0.4908806,-0.651322 1.8026687,-0.664668 2.3226304,-0.02365 0.4402263,0.542736 -0.016123,1.220917 -0.910084,1.352471 -0.2424843,0.03569 -0.2851608,0.03566 -0.5181973,-3.75e-4 z"
         id="path8-3"
         inkscape:label="11" />
      <path
         style="fill:#0000ff;fill-opacity:1;stroke-width:0.138499"
         d="m 3.0301683,76.87654 c -0.5271774,-0.522314 -0.5102651,-1.307815 0.039894,-1.852897 0.8152367,-0.807711 2.0362676,-0.364125 2.1934379,0.796854 0.069487,0.513281 0.030229,0.626741 -0.345757,0.999258 -0.5680029,0.562762 -1.3530492,0.586378 -1.887575,0.05678 z"
         id="path5"
         inkscape:label="10" />
      <path
         style="fill:#0000ff;fill-opacity:1;stroke-width:0.137047"
         d="M 3.5329813,67.917889 C 3.2083991,67.812003 2.9836937,67.612073 2.8178302,67.281591 2.5146175,66.677446 2.607458,66.223917 3.1349132,65.732641 c 0.5795998,-0.539842 1.121436,-0.506339 1.7290191,0.106913 0.4224645,0.426409 0.4713586,0.545882 0.4014227,0.98087 -0.146356,0.910307 -0.88048,1.375376 -1.7323737,1.097461 z"
         id="path4"
         inkscape:label="9" />
      <path
         style="fill:#0000ff;fill-opacity:1;stroke-width:0.139404"
         d="M 3.242435,58.554892 C 2.5443174,58.145557 2.467922,57.782988 2.9658142,57.242069 c 0.262567,-0.28526 0.4645771,-0.356652 1.0091606,-0.356652 0.5445832,0 0.7465933,0.07139 1.0091604,0.356652 0.4039667,0.438877 0.4067817,0.545107 0.027147,1.024602 C 4.6263747,58.752825 3.80755,58.886246 3.242435,58.554892 Z"
         id="path3"
         inkscape:label="8" />
      <ellipse
         style="fill:#0000ff;fill-opacity:1;stroke-width:0.0881656"
         id="path2-3-2"
         cx="3.96875"
         cy="48.286457"
         rx="1.3229166"
         ry="0.66145831"
         inkscape:label="7" />
    </g>
    <g
       id="g3"
       inkscape:label="green"
       style="fill:#006700;fill-opacity:1">
      <ellipse
         style="fill:#006700;fill-opacity:1;stroke-width:0.0881656"
         id="path2-8-9"
         cx="4.006042"
         cy="46.317184"
         rx="1.3229166"
         ry="0.66145831"
         inkscape:label="6" />
      <ellipse
         style="fill:#006700;fill-opacity:1;stroke-width:0.104319"
         id="path2-5-1-7"
         cx="4.0142083"
         cy="37.287777"
         rx="1.3229166"
         ry="0.92604166"
         inkscape:label="5" />
      <circle
         style="fill:#006700;fill-opacity:1;stroke-width:0.124685"
         id="path2-7-4-4"
         cx="4.0142083"
         cy="28.422579"
         r="1.3229166"
         inkscape:label="4" />
      <circle
         style="fill:#006700;fill-opacity:1;stroke-width:0.124685"
         id="path2-7-4"
         cx="4.0553346"
         cy="19.139187"
         r="1.3229166"
         inkscape:label="3" />
      <ellipse
         style="fill:#006700;fill-opacity:1;stroke-width:0.104319"
         id="path2-5-1"
         cx="3.96875"
         cy="9.921875"
         rx="1.3229166"
         ry="0.92604166"
         inkscape:label="2" />
      <ellipse
         style="fill:#006700;fill-opacity:1;stroke-width:0.0881656"
         id="path2-8"
         cx="3.96875"
         cy="0.66145831"
         rx="1.3229166"
         ry="0.66145831"
         inkscape:label="1" />
    </g>
  </g>
  <g
     inkscape:label="marble"
     inkscape:groupmode="layer"
     id="layer1">
    <circle
       style="fill:#999999;stroke-width:0.0706998;fill-opacity:0.89999998"
       id="path1-80-7"
       cx="3.9473684"
       cy="82.89473"
       r="3.9473684"
       inkscape:label="11" />
    <circle
       style="fill:#999999;fill-opacity:0.89999998;stroke-width:0.0706998"
       id="path1-80-7-0"
       cx="3.9473684"
       cy="90.789474"
       r="3.9473684"
       inkscape:label="12" />
    <circle
       style="fill:#999999;stroke-width:0.0706997;fill-opacity:0.89999998"
       id="path1-5-6"
       cx="3.9473684"
       cy="75"
       r="3.9473684"
       inkscape:label="10" />
    <circle
       style="fill:#999999;stroke-width:0.0706998;fill-opacity:0.89999998"
       id="path1-8-6"
       cx="3.9473684"
       cy="67.105263"
       r="3.9473684"
       inkscape:label="9" />
    <circle
       style="fill:#999999;stroke-width:0.0706998;fill-opacity:0.89999998"
       id="path1-80-4"
       cx="3.9473684"
       cy="59.210526"
       r="3.9473684"
       inkscape:label="8" />
    <circle
       style="fill:#999999;stroke-width:0.0706998;fill-opacity:0.89999998"
       id="path1-1-0"
       cx="3.9473684"
       cy="51.315788"
       inkscape:label="7"
       r="3.9473684" />
    <circle
       style="fill:#999999;stroke-width:0.0706998;fill-opacity:0.89999998"
       id="path1-1"
       cx="3.9473684"
       cy="43.421051"
       r="3.9473684"
       inkscape:label="6" />
    <circle
       style="fill:#999999;stroke-width:0.0706997;fill-opacity:0.89999998"
       id="path1-80"
       cx="3.9473684"
       cy="35.526318"
       r="3.9473684"
       inkscape:label="5" />
    <circle
       style="fill:#999999;stroke-width:0.0706998;fill-opacity:0.89999998"
       id="path1-5"
       cx="3.9473684"
       cy="27.631578"
       r="3.9473684"
       inkscape:label="4" />
    <circle
       style="fill:#999999;stroke-width:0.0706998;fill-opacity:0.89999998"
       id="path1-8"
       cx="3.9473684"
       cy="19.736843"
       r="3.9473684"
       inkscape:label="3" />
    <circle
       style="fill:#999999;stroke-width:0.0706998;fill-opacity:0.89999998;fill-rule:nonzero"
       id="path1-6"
       cx="3.9473684"
       cy="11.842106"
       r="3.9473684"
       inkscape:label="2" />
    <circle
       style="fill:#999999;fill-opacity:0.89999998;stroke-width:0.0706998"
       id="path1"
       cx="3.9473684"
       cy="3.9473684"
       r="3.9473684"
       inkscape:label="1" />
  </g>
  <g
     inkscape:groupmode="layer"
     id="layer2"
     inkscape:label="top"
     style="display:inline">
    <g
       id="g1"
       inkscape:label="blue">
      <ellipse
         style="fill:#0000ff;stroke-width:0.0881656"
         id="path2-3"
         cx="3.96875"
         cy="40.418449"
         rx="1.3229166"
         ry="0.66145831"
         inkscape:label="6" />
      <ellipse
         style="fill:#0000ff;stroke-width:0.104319"
         id="path2-9"
         cx="3.96875"
         cy="33.998959"
         rx="1.3229166"
         ry="0.92604166"
         inkscape:label="5" />
      <circle
         style="fill:#0000ff;stroke-width:0.124685"
         id="path2-4"
         cx="3.96875"
         cy="27.252083"
         r="1.3229166"
         inkscape:label="4" />
      <circle
         style="fill:#0000ff;stroke-width:0.124685"
         id="path2-7"
         cx="3.96875"
         cy="20.714426"
         r="1.3229166"
         inkscape:label="3" />
      <ellipse
         style="fill:#0000ff;stroke-width:0.104319"
         id="path2-5"
         cx="3.96875"
         cy="13.943542"
         rx="1.3229166"
         ry="0.92604166"
         inkscape:label="2" />
      <ellipse
         style="fill:#0000ff;stroke-width:0.0881656"
         id="path2"
         cx="3.96875"
         cy="7.2760415"
         rx="1.3229166"
         ry="0.66145831"
         inkscape:label="1" />
    </g>
    <g
       id="g2"
       inkscape:label="green"
       style="fill:#006700;fill-opacity:1">
      <path
         style="fill:#006700;fill-opacity:1;stroke-width:0.0642877"
         d="m 3.4925224,88.030947 c -0.5428519,-0.11489 -0.8146983,-0.331295 -0.78101,-0.62172 0.057384,-0.494705 1.2948026,-0.763567 2.0527997,-0.446024 0.1198941,0.05023 0.2895877,0.16773 0.3770974,0.26112 0.1486212,0.158604 0.152845,0.181221 0.064082,0.343122 -0.2008076,0.366273 -1.0661076,0.600408 -1.7129691,0.463502 z"
         id="path11"
         inkscape:label="12" />
      <path
         style="fill:#006700;fill-opacity:1;stroke-width:0.0642877"
         d="M 3.3751072,82.673917 C 3.0072374,82.543839 2.7000858,82.190504 2.7000858,81.897396 c 0,-0.899808 1.6545859,-1.221814 2.3651207,-0.460285 0.6778964,0.726549 -0.5636516,1.635107 -1.6900993,1.236806 z"
         id="path10"
         inkscape:label="11" />
      <circle
         style="fill:#006700;fill-opacity:1;stroke-width:0.124685"
         id="path2-8-6-0-1-5"
         cx="3.96875"
         cy="74.347923"
         r="1.3229166"
         inkscape:label="10" />
      <circle
         style="fill:#006700;fill-opacity:1;stroke-width:0.124685"
         id="path2-8-6-0-1"
         cx="3.96875"
         cy="68.262497"
         r="1.3229166"
         inkscape:label="9" />
      <path
         style="display:inline;fill:#006700;fill-opacity:1;stroke-width:0.0642877"
         d="M 3.3751073,61.590872 C 3.0267889,61.463186 2.7000859,61.101297 2.7000859,60.843151 c 0,-0.511304 0.5519451,-0.895855 1.2823054,-0.893408 1.236988,0.0042 1.7347795,1.054172 0.7427587,1.566749 -0.3261973,0.168548 -0.9929545,0.205282 -1.3500427,0.07438 z"
         id="path12"
         inkscape:label="8" />
      <path
         style="fill:#006700;fill-opacity:1;stroke-width:0.0642877"
         d="M 3.2565083,54.896126 C 2.9384185,54.7779 2.7000858,54.552517 2.7000858,54.369936 c 0,-0.188716 0.3211846,-0.454332 0.6595579,-0.545446 0.3782515,-0.101852 1.1829663,-0.04934 1.4828244,0.09676 0.8126513,0.39596 0.3547655,0.999969 -0.7923395,1.045197 -0.3642005,0.01437 -0.6288812,-0.0091 -0.7936203,-0.07032 z"
         id="path13"
         inkscape:label="7" />
    </g>
  </g>
</svg>
